<?xml version="1.0" encoding="utf-8"?>
<!-- Generator: Adobe Illustrator 26.1.0, SVG Export Plug-In . SVG Version: 6.00 Build 0)  -->
<svg version="1.1" id="Layer_1" xmlns="http://www.w3.org/2000/svg" xmlns:xlink="http://www.w3.org/1999/xlink" x="0px" y="0px"
	 viewBox="0 0 425.3 426.2" style="enable-background:new 0 0 425.3 426.2;" xml:space="preserve">
<style type="text/css">
	.st0{fill:#121417;}
	.st1{fill:#7900CE;}
	.st2{fill:#BB77C0;}
	.st3{fill:#BECDE0;}
	.st4{fill:#D3DDE9;}
	.st5{fill:#E8EDF3;}
	.st6{fill:#F0F0F0;}
	.st7{fill:#EFEFEF;}
	.st8{fill:#FCFCFC;}
	.st9{fill:#538AD2;}
	.st10{fill:#8CAFE0;}
	.st11{fill:#030508;}
	.st12{fill:#030304;}
	.st13{fill:#050505;}
	.st14{fill:#080909;}
	.st15{fill:#E8E8E8;}
	.st16{fill:#F5F5F5;}
</style>
<g>
	<path class="st0" d="M212,336.6c-0.1-0.3-0.4-0.3-0.6-0.3c-10,0-19.7-2-29.3-4.8c-11.1-3.2-21.7-7.2-31.6-13.1
		c-16.7-9.8-30.4-22.8-41-38.9c-8.6-13.1-14.5-27.3-17.6-42.6c-2.3-11.3-2.9-22.7-2-34.3c1.2-15.5,5.2-30.2,12.1-44.1
		c11.6-23.4,29-41.4,51.9-54c13.8-7.6,28.7-12.2,44.4-14c21.8-2.5,42.9,0.5,63.1,9.1c16.2,6.9,30.2,16.9,42.1,29.8
		c11.9,12.9,20.7,27.7,26.2,44.4c5.3,15.9,7.2,32.3,5.8,49c-2.6,29.8-14.6,55.3-35.7,76.5c-15,15.1-33,25.5-53.5,31.3
		c-6.3,1.8-12.5,3.7-19,4.6c-4.4,0.6-8.7,1.1-13.1,1.1c-0.5,0-1.1-0.3-1.5,0.3C212.4,336.6,212.2,336.6,212,336.6z M157.9,321.1
		c-0.1-0.1-0.3-0.1-0.4-0.2c-0.2-0.1-0.4-0.3-0.6-0.4c-19.9-11.8-34.8-28.2-44.4-49.3c-9.8-21.6-12.3-44.1-7.4-67.2
		c5.9-27.9,20.6-50.4,43.8-66.9c25.6-18.1,54.1-24,84.8-18.3c19.4,3.6,36.5,12.1,51.3,25.1c12.8,11.1,22.4,24.5,29,40.1
		c8.3,19.7,10.4,40.2,6.8,61.2c-2.7,16-8.9,30.6-18.2,43.9c-8.5,12-19,22-31.4,29.8c-0.5,0.3-1.2,0.5-1.4,1.2c0.3,0,0.4,0,0.5,0
		c0.3-0.1,0.6-0.3,0.9-0.5c14.6-8,27.1-18.4,37.4-31.4c16.1-20.4,24.9-43.6,26.3-69.6c0.7-11.9-0.5-23.8-3.4-35.4
		c-6.2-24.7-18.9-45.4-38-62.3c-11.6-10.3-24.8-18-39.4-23.2c-16.6-5.9-33.8-8.2-51.4-6.8c-11.2,0.9-22.1,3.3-32.6,7.2
		c-16.5,6.1-31.1,15.4-43.6,27.8c-10,9.8-18.1,21.1-24.1,33.7C95.9,172.9,92,187,90.7,201.8c-1.1,12.2-0.4,24.4,2.3,36.3
		c6.2,28.1,20.7,51.2,43,69.4c6.6,5.3,13.6,10,21.3,13.6c0.1,0.1,0.3,0.1,0.4,0.2c0.2,0.1,0.4,0.2,0.6,0.3c0.1,0.2,0.4,0.3,0.6,0.3
		c0.1,0.1,0.2,0.2,0.3,0.2c0,0,0.1-0.1,0.1-0.2c-0.1,0-0.3-0.1-0.4-0.1c0-0.3-0.3-0.3-0.5-0.4C158.2,321.3,158.1,321.2,157.9,321.1z
		 M190.9,331.9c0.2,0.1,0.5,0.3,0.6,0.1c0.1-0.2-0.2-0.3-0.3-0.4c-0.3,0-0.6-0.6-0.8-0.1C190.3,331.8,190.7,331.8,190.9,331.9z
		 M180.1,329.8c0.2,0.1,0.5,0.3,0.6,0.1c0.1-0.2-0.2-0.3-0.3-0.4c-0.2-0.1-0.4-0.2-0.6-0.3c-0.3-0.1-0.8-0.6-1-0.2
		c-0.3,0.5,0.4,0.4,0.7,0.6C179.7,329.7,179.9,329.7,180.1,329.8z M163,322.9c0.1,0.1,0.2,0.3,0.3,0.1c0.1-0.2-0.1-0.2-0.2-0.2
		c-0.1-0.1-0.3-0.2-0.5-0.3c0,0-0.1,0.1-0.2,0.2C162.7,322.7,162.9,322.8,163,322.9z M161.5,321.7c-0.1-0.1-0.2-0.1-0.4-0.2
		c-0.3-0.3-0.6-0.6-1.2-0.5c0.1,0.5,0.6,0.7,0.9,0.8c0.1,0,0.3,0.1,0.4,0.1c0.2,0.2,0.4,0.4,0.6,0.2
		C162,321.8,161.6,321.8,161.5,321.7z M263.8,321.7c-0.2,0.1-0.4,0.2-0.6,0.3c0.3,0.2,0.6,0.2,0.9,0c0.2-0.1,0.7-0.1,0.5-0.5
		C264.3,321.2,264,321.6,263.8,321.7z M246.4,327.5c-0.2,0.1-0.5,0-0.7,0.3c0.3,0.1,0.6,0.2,0.9,0c0.2-0.1,0.7-0.2,0.4-0.5
		C246.9,327,246.6,327.3,246.4,327.5z M268.9,320.3c-0.3,0.2-0.6,0.3-1,0.5c-0.2,0.1-0.4,0.2-0.6,0.4c-0.6,0.3-1.2,0.5-1.7,1
		c-0.1,0-0.2,0.1-0.2,0.1c0,0,0.1,0.1,0.1,0.1c0-0.1,0-0.1,0.1-0.2c0.8,0,1.3-0.4,1.9-0.8c0.2-0.1,0.4-0.2,0.6-0.3
		c0.3-0.2,0.7-0.3,1-0.5c0-0.1,0.2-0.3,0.1-0.3C269.2,320,269,320.1,268.9,320.3z M227.7,332.2c20.1-8.4,29.4-31.4,20.7-51.3
		c-7.1-16.2-24-25.4-41.6-22.9c-16.6,2.4-30,15.5-32.7,32.3c-2.8,17.7,6.5,34.7,23.1,41.8c0.4,0.2,0.7,0.5,1.2,0.1
		c-0.5-0.4-1.1-0.8-1.6-1.2c-8.3-6.7-11.7-15.4-9.6-25.8c2.8-13.6,15.1-22,29-20.3c15.8,2,26.2,19,20.8,34
		c-1.9,5.3-5.3,9.6-9.8,12.9c-0.2,0.1-0.7,0.3-0.6,0.5C227,332.7,227.4,332.3,227.7,332.2z M231.9,331.6c0.4-0.1,0.9-0.3,1.3-0.5
		c10.5-4.7,18.9-11.7,24.8-21.7c7-11.7,9.1-24.3,6.2-37.6c-3.2-15.1-11.7-26.7-25.1-34.6c-11.7-6.9-24.3-8.9-37.5-6.1
		c-15.3,3.3-27,11.9-34.9,25.5c-5.8,10-7.9,20.8-6.5,32.3c1.4,11.8,6.5,22,14.8,30.5c5,5.2,11,9.1,17.7,11.8
		c0.2,0.2,0.6,0.4,0.8,0.1c0.2-0.3-0.2-0.3-0.3-0.5c-2.8-1.8-5.5-3.6-7.9-5.9c-9.3-9.1-13.4-20.2-12.1-33.1
		c1-10.1,5.4-18.6,13.2-25.3c11.4-9.8,24.5-12.5,38.7-8c12.5,3.9,21,12.5,25.3,24.9c3.9,11.3,2.7,22.3-3.3,32.7
		c-3.7,6.4-9,11.3-15.4,14.9c-0.2,0.1-0.6,0.2-0.4,0.4C231.4,332,231.7,331.7,231.9,331.6z M265.8,320.7
		c6.1-1.1,25.5-17.7,34.2-29.5c16.9-22.8,24.1-48.4,21.1-76.5c-5.7-54.5-51.6-97.2-108.5-97.2c-57.7,0-104.9,44.4-108.8,101.2
		c-1.8,26.7,5.4,51,21.4,72.5c9.1,12.3,20.5,22.2,34,29.5c-25.3-18.1-40.4-42.3-42.4-73.6c-2.1-31.3,8.9-57.8,32.4-78.4
		c36.9-32.4,91.3-31.9,127.9,1c18,16.2,28.7,36.5,30.9,60.6C311.6,268.4,296.6,298.3,265.8,320.7z M178.6,328.9
		c-19.6-9.5-34-24.2-42-44.5c-8-20.4-7.8-40.9,0.6-61.1c13.5-32.3,46.4-53.3,83.8-49.8c35.3,3.3,64.8,29.9,71.9,65.1
		c7.3,36.2-10.9,75-48,91.2c10.5-3.5,20-8.8,28.4-15.9c21.1-17.8,32.9-40.5,34.5-68.1c3-49.6-34-95-86.6-99.7
		c-51.8-4.7-97.7,32.7-103.3,84.2C112.4,280.8,146.5,318.2,178.6,328.9z M247.3,327.2c26.7-11.6,51.8-44.2,45.3-85.4
		c-6.3-40-42.3-70.3-84.9-67.8c-39.7,2.3-73.7,33.9-76,76.4c-2.1,37.9,22.5,67.1,47,77.2c-19.2-11.9-31-28.7-33.6-51.2
		c-2.6-22.6,4.7-42,21.4-57.5c26.2-24.4,67.6-24.2,93.7,1.5c13,12.8,20.1,28.5,20.3,46.7C280.9,293.2,269,313,247.3,327.2z
		 M190,331.4c-16.1-8.4-26.7-21.1-30-39.1c-3.3-18.1,1.7-34,14.5-47.1c19.8-20.2,51.6-21.2,72.7-3.2c10.9,9.3,17.6,21.2,18.6,35.5
		c1.8,24.6-9.3,42.2-31,54c20.1-5.9,46.6-29.6,44.9-66.3c-1.7-36.2-32.6-65.2-70.3-63.5c-36.4,1.7-65.5,32.3-63.9,69.8
		c0.8,18.4,8.2,33.9,21.7,46.5C173.8,324.1,181.4,328.6,190,331.4z M212.5,285.4c-13.9,0.1-25.3,11.5-25.1,25.2
		c0.2,13.8,11.6,25.1,25.3,24.9c14-0.2,25.2-11.5,25-25.4C237.6,296.5,226.2,285.3,212.5,285.4z M241,331.1c0.6,0,1-0.2,1.7-0.6
		C241.9,330.5,241.5,330.7,241,331.1z M265.8,320.9c0.1-0.2-0.1-0.2-0.2-0.3c-0.2,0.1-0.4,0.2-0.5,0.4c-0.2,0.2,0.1,0.3,0.2,0.3
		C265.5,321.2,265.7,321.2,265.8,320.9z M234,331.9c0.4,0,0.5,0,0.6-0.1c0.2-0.1,0.7-0.2,0.4-0.5C234.8,331.1,234.4,331.4,234,331.9
		z M239.8,331.6c-0.2,0-0.3,0-0.4,0c0,0,0,0.1-0.1,0.1c0.1,0,0.2,0,0.3,0C239.6,331.7,239.7,331.6,239.8,331.6z M230.4,331.8
		c0,0-0.1,0-0.2,0.1c0.1,0.1,0.2,0.1,0.3,0.2c0.1,0,0.3,0,0.4-0.1C230.9,331.8,230.8,331.7,230.4,331.8z M264.4,322.9
		c0,0-0.1,0-0.1,0c-0.2,0-0.2,0.1,0,0.1C264.2,323,264.3,323,264.4,322.9C264.4,323,264.3,322.9,264.4,322.9z M240.7,331.3
		c-0.1-0.1-0.1-0.1-0.2-0.1c-0.1,0-0.2,0-0.2,0.1c0,0,0.1,0.1,0.1,0.1C240.5,331.4,240.6,331.4,240.7,331.3z M193.6,331.6
		c0.2,0.1,0.3,0.2,0.4,0.3c0.2,0.1,0.2-0.1,0.3-0.2c-0.1-0.1-0.1-0.2-0.2-0.2C194,331.5,193.8,331.5,193.6,331.6z M163.9,323.3
		C163.9,323.3,164,323.3,163.9,323.3c0.1-0.1,0-0.1,0-0.2C163.9,323.2,163.8,323.2,163.9,323.3C163.8,323.3,163.9,323.3,163.9,323.3
		z M164.5,323.4c0,0-0.1,0.1-0.1,0.1c0,0,0.1,0.1,0.1,0.1c0,0,0.1-0.1,0.1-0.1C164.5,323.5,164.5,323.5,164.5,323.4z M265,322.6
		C265,322.6,265,322.5,265,322.6c-0.1-0.1-0.1,0-0.2,0C264.9,322.6,264.9,322.7,265,322.6C265,322.7,265,322.6,265,322.6z"/>
	<path class="st1" d="M157.3,321.1c-7.6-3.7-14.7-8.3-21.3-13.6c-22.4-18.1-36.8-41.3-43-69.4c-2.7-12-3.3-24.1-2.3-36.3
		c1.3-14.8,5.2-28.9,11.6-42.2c6.1-12.6,14.1-23.9,24.1-33.7C139,113.5,153.5,104.2,170,98c10.5-3.9,21.4-6.3,32.6-7.2
		c17.6-1.4,34.8,0.8,51.4,6.8c14.6,5.2,27.7,12.9,39.4,23.2c19.1,16.9,31.8,37.6,38,62.3c2.9,11.6,4.1,23.4,3.4,35.4
		c-1.4,25.9-10.1,49.2-26.3,69.6c-10.3,13-22.8,23.4-37.4,31.4c-0.3,0.2-0.6,0.3-0.9,0.5c-0.1,0.1-0.3,0-0.5,0
		c0.3-0.7,0.9-0.9,1.4-1.2c12.5-7.9,22.9-17.8,31.4-29.8c9.3-13.3,15.5-27.9,18.2-43.9c3.6-21,1.4-41.5-6.8-61.2
		c-6.5-15.6-16.2-29-29-40.1c-14.9-12.9-31.9-21.5-51.3-25.1c-30.8-5.7-59.2,0.2-84.8,18.3c-23.3,16.5-38,39-43.8,66.9
		c-4.8,23.1-2.4,45.6,7.4,67.2c9.6,21.1,24.5,37.5,44.4,49.3c0.2,0.1,0.4,0.3,0.6,0.4C157.4,321,157.3,321.1,157.3,321.1z
		 M201.5,100.9c0.1,0,0.2,0,0.3,0c0.7,2.6,1.4,5.1,2.1,7.7c0.1,0.5,0.3,0.9,1,0.9c0.6,0,1.1,0,1.3-0.7c0.9-3.3,1.9-6.6,2.8-9.9
		c0.1-0.3,0.2-0.7-0.3-0.8c-0.4,0-0.8-0.1-0.9,0.4c-0.1,0.3-0.2,0.6-0.2,0.9c-0.7,2.7-1.4,5.4-2.3,8.5c-0.2-0.6-0.3-0.9-0.4-1.1
		c-0.7-2.6-1.4-5.2-2.1-7.8c-0.1-0.5-0.3-0.9-1-1c-0.7,0-0.8,0.4-1,0.9c-0.1,0.3-0.1,0.6-0.2,0.9c-0.7,2.6-1.4,5.2-2.1,8.2
		c-0.9-3.3-1.7-6.2-2.5-9.1c-0.2-0.7-0.5-1-1.1-0.8c-0.9,0.2-0.3,0.8-0.2,1.2c0.8,2.9,1.6,5.9,2.5,8.8c0.2,0.7,0.2,1.5,1.3,1.5
		c1.1,0,1.1-0.8,1.3-1.5C200.3,105.7,200.9,103.3,201.5,100.9z M228.8,107.5c-0.8-1.5-1.4-2.6-2-3.6c-0.9-1.6-1.8-3.2-2.7-4.8
		c-0.4-0.6-0.9-0.9-1.6-0.9c-0.5,0-0.9,0.3-0.9,0.8c0,3.3,0,6.6,0,9.9c0,0.5,0.3,0.7,0.8,0.7c0.5,0,0.6-0.3,0.6-0.7
		c0-0.4,0-0.8,0-1.2c0-2.4,0-4.8,0-7.2c0.6,0.3,0.8,0.8,1,1.2c1.3,2.4,2.6,4.7,3.9,7.1c0.4,0.6,0.8,1,1.6,0.9
		c0.9-0.2,0.7-0.9,0.7-1.4c0-2.9,0-5.8,0-8.7c0-0.5,0.1-1.2-0.7-1.2c-0.9,0-0.6,0.7-0.6,1.2C228.8,101.9,228.8,104.5,228.8,107.5z
		 M210.4,109.6c1.2-0.1,1.1-0.9,1.4-1.4c0.3-0.5,0.1-1.6,1-1.6c1.4-0.1,2.8-0.2,4.2,0.1c0.7,0.2,0.6,1.5,1,2.2
		c0.1,0.2,0.2,0.5,0.4,0.6c0.3,0.1,0.6,0.1,0.9,0c0.4-0.1,0.3-0.5,0.2-0.8c-1.2-3.3-2.4-6.7-3.6-10c-0.2-0.5-0.6-0.6-1.1-0.6
		c-0.5,0-0.8,0.1-1,0.6c-1.2,3.3-2.4,6.7-3.6,10C209.9,109.3,210,109.6,210.4,109.6z"/>
	<path class="st2" d="M265.8,320.7c30.8-22.4,45.9-52.3,42.3-90.5c-2.2-24.1-13-44.4-30.9-60.6c-36.6-32.9-91-33.4-127.9-1
		c-23.5,20.7-34.5,47.2-32.4,78.4c2.1,31.3,17.1,55.5,42.4,73.6c-13.6-7.3-24.9-17.2-34-29.5c-16-21.5-23.2-45.8-21.4-72.5
		c3.9-56.8,51-101.2,108.8-101.2c56.9,0,102.8,42.7,108.5,97.2c2.9,28.2-4.2,53.8-21.1,76.5C291.3,303,271.9,319.5,265.8,320.7z
		 M219.6,128.6c0.1,0,0.2,0,0.3-0.1c0.1,0.2,0.2,0.3,0.3,0.5c1.5,2.6,2.9,5.2,4.3,7.8c0.4,0.6,0.8,1,1.6,0.9
		c0.9-0.2,0.7-0.9,0.7-1.4c0-2.9,0-5.8,0-8.7c0-0.5,0.2-1.2-0.7-1.2c-0.9,0-0.6,0.7-0.7,1.2c0,2.6,0,5.1,0,8.1
		c-1.7-3-3.2-5.7-4.7-8.4c-0.4-0.8-1-1.1-1.9-0.9c-0.8,0.2-0.7,0.9-0.7,1.5c0,2.8,0,5.7,0,8.5c0,0.5-0.2,1.4,0.7,1.3
		c1,0,0.6-0.9,0.6-1.4C219.7,133.7,219.6,131.1,219.6,128.6z M203,132.2c0.4-0.2,0.7-0.4,1-0.7c0.9-0.7,1.2-1.6,1-2.6
		c-0.2-1.1-0.8-1.9-1.9-2.2c-1.3-0.3-2.6-0.4-3.9-0.3c-0.6,0-1,0.3-1,0.9c0,3.3,0,6.6,0,9.9c0,0.5,0.3,0.7,0.8,0.7
		c0.5,0,0.7-0.2,0.7-0.7c0-1,0-2,0-3c0-1.4,0.8-1.8,2-1.2c0.7,0.3,1,0.9,1.3,1.6c0.4,0.9,0.8,1.8,1.1,2.8c0.2,0.6,0.7,0.6,1.2,0.5
		c0.4-0.1,0.4-0.4,0.3-0.7C204.8,135.4,204.5,133.5,203,132.2z M207.4,137.7c0.9,0.1,0.8-0.7,1.1-1.2c0.4-0.6,0.1-1.7,1-1.8
		c1.4-0.1,2.8-0.2,4.2,0.1c0.9,0.2,0.7,1.5,1.1,2.3c0.1,0.2,0.3,0.5,0.4,0.5c0.3,0.1,0.6,0.1,0.9,0c0.4-0.1,0.2-0.5,0.1-0.8
		c-1.2-3.3-2.4-6.6-3.6-10c-0.2-0.5-0.6-0.6-1.1-0.6c-0.5,0-0.9,0.1-1,0.6c-1.2,3.4-2.4,6.7-3.6,10.1
		C206.6,137.6,206.8,137.8,207.4,137.7z"/>
	<path class="st3" d="M178.6,328.9c-32.1-10.7-66.2-48.1-60.7-98.8c5.6-51.5,51.4-88.9,103.3-84.2c52.6,4.8,89.6,50.1,86.6,99.7
		c-1.6,27.6-13.4,50.3-34.5,68.1c-8.4,7.1-17.9,12.4-28.4,15.9c37.1-16.2,55.3-55,48-91.2c-7.1-35.2-36.7-61.8-71.9-65.1
		c-37.3-3.5-70.3,17.5-83.8,49.8c-8.4,20.2-8.6,40.8-0.6,61.1C144.6,304.7,158.9,319.3,178.6,328.9z M206.1,156.4c0.1,0,0.3,0,0.4,0
		c0,2.8,0,5.5,0,8.3c0,0.5-0.3,1.2,0.7,1.2c0.9,0,0.7-0.7,0.7-1.2c0-2.9,0-5.8,0-8.7c0-0.6,0.2-1.4-0.8-1.5
		c-0.8-0.1-1.5,0.1-1.8,0.9c-0.5,1.3-1.1,2.6-1.6,3.9c-0.6,1.4-1.2,2.8-1.9,4.4c-0.2-0.4-0.4-0.6-0.4-0.8c-1-2.4-2-4.9-2.9-7.3
		c-0.4-1-1.1-1.2-2-1.1c-1,0.1-0.9,0.9-0.9,1.6c0,2.6,0,5.2,0,7.8c0,0.7-0.6,1.9,0.7,1.9c1.5,0.1,0.8-1.3,0.8-1.9
		c0.1-2.5,0-5.1,0-7.6c1.4,2.9,2.5,5.7,3.6,8.6c0.2,0.4,0.2,1,0.9,1c0.8,0,0.9-0.5,1.1-1C203.8,162.1,204.9,159.2,206.1,156.4z
		 M228.5,163.9c-1.7-3.1-3.2-5.7-4.7-8.4c-0.4-0.7-1-1-1.7-0.9c-0.9,0.1-0.8,0.9-0.8,1.5c0,2.6,0,5.3,0,7.9c0,0.7-0.6,1.9,0.7,1.9
		c1.2,0,0.5-1.2,0.6-1.8c0.1-2.5,0-4.9,0-7.4c0.5,0.2,0.7,0.5,0.8,0.8c1.4,2.5,2.8,4.9,4.1,7.4c0.4,0.7,0.9,1.1,1.7,1
		c0.8-0.2,0.6-0.9,0.6-1.5c0-2.8,0-5.7,0-8.5c0-0.5,0.3-1.4-0.7-1.3c-0.9,0-0.6,0.8-0.6,1.3C228.5,158.3,228.5,160.9,228.5,163.9z
		 M214.1,162.9c2.7,0,2.7,0,3.5,2.1c0.1,0.1,0.1,0.3,0.1,0.4c0.2,0.6,0.8,0.6,1.2,0.5c0.5-0.2,0.2-0.7,0.1-1
		c-1.1-3.1-2.3-6.2-3.4-9.4c-0.2-0.6-0.5-1-1.3-1c-0.8,0-1,0.5-1.2,1.1c-1.1,3-2.2,6.1-3.3,9.1c-0.1,0.4-0.7,0.9,0,1.2
		c0.7,0.3,1.2-0.2,1.3-0.8C211.6,163.2,212.5,162.5,214.1,162.9z"/>
	<path class="st4" d="M247.3,327.2c21.8-14.2,33.6-34,33.3-60.2c-0.2-18.2-7.3-33.9-20.3-46.7c-26.1-25.6-67.5-25.9-93.7-1.5
		c-16.6,15.5-23.9,34.9-21.4,57.5c2.5,22.6,14.4,39.3,33.6,51.2c-24.6-10.1-49.1-39.3-47-77.2c2.3-42.4,36.4-74.1,76-76.4
		c42.5-2.5,78.6,27.8,84.9,67.8C299.1,283,274,315.6,247.3,327.2z M219.6,185.2c0.1,0,0.2-0.1,0.3-0.1c1.6,2.8,3.1,5.6,4.7,8.4
		c0.4,0.7,0.9,1,1.6,0.8c0.8-0.2,0.6-0.8,0.6-1.3c0-2.9,0-5.8,0-8.7c0-0.5,0.3-1.4-0.7-1.3c-0.9,0-0.6,0.8-0.6,1.3c0,2.6,0,5.1,0,8
		c-0.3-0.5-0.4-0.6-0.5-0.8c-1.4-2.5-2.8-5-4.2-7.6c-0.4-0.7-1-1-1.7-0.9c-0.9,0.1-0.8,0.9-0.8,1.5c0,2.9,0,5.8,0,8.7
		c0,0.5-0.1,1.2,0.8,1.2c0.8,0,0.6-0.7,0.6-1.1C219.6,190.6,219.6,187.9,219.6,185.2z M216.2,193.9c0,0,0-0.1,0-0.1
		c-1.2-3.4-2.5-6.8-3.7-10.2c-0.2-0.5-0.7-0.5-1.1-0.5c-0.5,0-0.8,0.2-1,0.7c-1.2,3.3-2.4,6.5-3.5,9.8c-0.1,0.2-0.5,0.7,0.1,0.8
		c0.4,0.1,0.9,0.2,1.2-0.3c0.2-0.6,0.4-1.2,0.6-1.8c0.1-0.3,0.2-0.8,0.6-0.8c1.4,0,2.9-0.2,4.3,0.1c0.8,0.2,0.7,1.4,1,2.2
		c0.2,0.6,0.5,0.8,1.1,0.7C216.2,194.4,216.3,194.3,216.2,193.9z M205.6,185.2c0.1-1.2-0.1-1.5-1-1.9c-3.3-1.4-6.4,0.6-6.9,4.5
		c-0.3,2.2,0,4.4,2,5.8c1.6,1.2,3.4,1.1,5.1,0.3c0.7-0.3,1.3-0.7,0.8-1.7c-2.7,1.3-4.4,1.2-5.5-0.2c-1.2-1.5-1.3-5-0.1-6.6
		C201.7,183.3,203.7,184.2,205.6,185.2z"/>
	<path class="st5" d="M190,331.4c-8.6-2.8-16.2-7.3-22.8-13.4c-13.5-12.5-20.9-28.1-21.7-46.5c-1.6-37.5,27.5-68.1,63.9-69.8
		c37.7-1.8,68.6,27.3,70.3,63.5c1.7,36.8-24.8,60.4-44.9,66.3c21.7-11.8,32.9-29.4,31-54c-1.1-14.4-7.7-26.2-18.6-35.5
		c-21.1-18-52.9-17-72.7,3.2c-12.9,13.1-17.8,29-14.5,47.1C163.3,310.3,173.9,323,190,331.4z M224.6,220.5c-0.5-1-0.9-1.5-1.2-2.1
		c-1.2-2.1-2.3-4.2-3.5-6.3c-0.4-0.7-1-1-1.7-0.9c-0.7,0.1-0.8,0.6-0.8,1.2c0,3.1,0,6.2,0,9.3c0,0.5,0.1,0.9,0.7,0.9
		c0.7,0,0.6-0.5,0.6-0.9c0-2.4,0-4.9,0-7.3c0-0.3-0.2-0.8,0.3-1c1.6,2.8,3.1,5.6,4.7,8.4c0.4,0.6,0.8,1,1.6,0.9
		c0.9-0.1,0.6-0.9,0.6-1.4c0-2.9,0-5.8,0-8.7c0-0.5,0.2-1.2-0.7-1.2c-0.9,0-0.7,0.7-0.7,1.2C224.6,215,224.6,217.6,224.6,220.5z
		 M215.4,222.2c0-0.1,0-0.2,0-0.2c-1.2-3.5-2.5-6.9-3.8-10.4c-0.3-0.8-1.7-0.6-2,0.2c-1.2,3.3-2.4,6.6-3.6,9.9
		c-0.1,0.2-0.5,0.7,0.2,0.8c0.4,0.1,0.9,0.2,1.1-0.4c0.2-0.6,0.4-1.2,0.6-1.8c0.1-0.3,0.2-0.7,0.6-0.7c1.4,0,2.8-0.2,4.2,0.1
		c0.9,0.2,0.8,1.5,1.1,2.3c0.3,0.6,0.6,0.7,1.2,0.6C215.3,222.6,215.4,222.5,215.4,222.2z M199.4,216.8c0,1.5,0,3.1,0,4.6
		c0,0.7,0.2,1.2,1,1.2c1.3,0,2.7,0,4,0c0.5,0,0.7-0.2,0.7-0.7c0-0.6-0.4-0.6-0.8-0.6c-0.8,0-1.6-0.1-2.4,0c-0.8,0.1-1.1-0.2-1.1-1.1
		c0.1-2.6,0-5.2,0-7.8c0-0.5,0.3-1.3-0.7-1.3c-1.1,0-0.8,0.8-0.8,1.4C199.4,214,199.4,215.4,199.4,216.8z"/>
	<path class="st6" d="M192.7,331.3c-6.7-2.7-12.6-6.6-17.7-11.8c-8.3-8.5-13.4-18.7-14.8-30.5c-1.4-11.5,0.7-22.3,6.5-32.3
		c7.9-13.6,19.6-22.2,34.9-25.5c13.2-2.8,25.8-0.9,37.5,6.1c13.3,7.9,21.8,19.4,25.1,34.6c2.8,13.3,0.7,25.9-6.2,37.6
		c-5.9,9.9-14.3,17-24.8,21.7c-0.4,0.2-0.8,0.3-1.3,0.5c-0.1-0.1-0.2-0.2-0.3-0.3c6.4-3.6,11.7-8.5,15.4-14.9
		c6-10.4,7.2-21.4,3.3-32.7c-4.3-12.4-12.8-20.9-25.3-24.9c-14.2-4.5-27.3-1.8-38.7,8c-7.7,6.6-12.1,15.2-13.2,25.3
		c-1.3,12.9,2.8,24,12.1,33.1c2.4,2.3,5.1,4.1,7.9,5.9C193,331.1,192.8,331.2,192.7,331.3z M225.5,248.7c-1.7-3-3.1-5.6-4.6-8.3
		c-0.4-0.7-1-1.2-1.8-1c-1,0.2-0.8,1-0.8,1.7c0,2.7,0,5.5,0,8.2c0,0.6-0.4,1.5,0.7,1.5c1,0,0.6-0.9,0.6-1.4c0-2.6,0-5.2,0-7.9
		c0.5,0.3,0.8,0.7,1,1.1c1.3,2.4,2.7,4.8,4,7.2c0.4,0.6,0.8,1,1.6,0.9c0.9-0.2,0.6-0.9,0.6-1.5c0-2.9,0-5.8,0-8.7
		c0-0.5,0.2-1.2-0.7-1.2c-0.9,0-0.6,0.7-0.6,1.2C225.5,243.2,225.5,245.7,225.5,248.7z M216.2,250.3c0,0,0-0.1,0-0.1
		c-1.2-3.4-2.5-6.8-3.7-10.2c-0.2-0.5-0.6-0.5-1.1-0.5c-0.5,0-0.8,0.2-1,0.7c-1.2,3.3-2.4,6.5-3.5,9.8c-0.1,0.2-0.5,0.7,0,0.9
		c0.4,0.1,1,0.3,1.2-0.4c0.2-0.6,0.4-1.1,0.6-1.7c0.1-0.3,0.1-0.8,0.6-0.8c1.4,0,2.9-0.2,4.3,0.1c0.8,0.2,0.7,1.4,1,2.2
		c0.2,0.5,0.5,0.8,1.1,0.8C216.1,250.8,216.3,250.7,216.2,250.3z M198.5,245.2c0,1.2-0.1,2.4,0,3.6c0.1,0.7-0.7,2,0.8,2
		c1.4,0,0.6-1.3,0.7-2c0.1-2.2,0-2.2,2.3-2.4c1.8-0.2,3.1-1.5,3.2-3.3c0.1-1.9-0.8-3-2.8-3.4c-0.9-0.2-1.9-0.2-2.8-0.2
		c-1,0-1.3,0.4-1.3,1.3C198.5,242.2,198.5,243.7,198.5,245.2z"/>
	<path class="st7" d="M227.3,331.9c4.5-3.3,7.9-7.6,9.8-12.9c5.4-15-4.9-32-20.8-34c-13.9-1.8-26.3,6.7-29,20.3
		c-2.1,10.4,1.3,19.1,9.6,25.8c0.5,0.4,1,0.8,1.6,1.2c-0.5,0.4-0.9,0.1-1.2-0.1c-16.5-7.1-25.9-24.1-23.1-41.8
		c2.7-16.8,16.1-29.9,32.7-32.3c17.5-2.5,34.5,6.7,41.6,22.9c8.7,20-0.6,42.9-20.7,51.3C227.6,332.1,227.5,332,227.3,331.9z
		 M219.6,269.8c0.5,0,0.5,0.2,0.6,0.4c1.5,2.6,2.9,5.2,4.4,7.8c0.4,0.7,0.9,1.1,1.7,1c0.9-0.2,0.6-0.9,0.6-1.5c0-2.8,0-5.7,0-8.5
		c0-0.5,0.3-1.4-0.7-1.3c-0.9,0-0.6,0.8-0.6,1.3c0,2.6,0,5.1,0,8c-0.3-0.5-0.4-0.6-0.5-0.8c-1.4-2.5-2.8-5-4.2-7.6
		c-0.4-0.7-1-1-1.7-0.9c-0.9,0.1-0.8,0.9-0.8,1.5c0,2.9,0,5.8,0,8.7c0,0.5-0.1,1.2,0.8,1.1c0.8,0,0.6-0.7,0.6-1.1
		C219.6,275.2,219.6,272.5,219.6,269.8z M203.6,272.8c1.4-0.9,1.5-2.1,1.2-3.4c-0.3-1.2-1.4-1.5-2.5-1.7c-1-0.2-1.9-0.1-2.8-0.1
		c-0.8,0-1.2,0.3-1.2,1.2c0,3,0,6.1,0,9.1c0,0.6,0.2,1.1,0.9,1.1c1.1,0,2.3,0,3.4-0.1c1.6-0.2,2.8-0.9,3.1-2.6
		C205.9,274.7,205.1,273.6,203.6,272.8z M216.5,278.5c0,0,0-0.1,0-0.1c-1.2-3.4-2.5-6.8-3.7-10.2c-0.2-0.5-0.6-0.5-1.1-0.5
		c-0.5,0-0.8,0.2-1,0.7c-1.2,3.3-2.4,6.5-3.5,9.8c-0.1,0.2-0.5,0.7,0,0.9c0.4,0.1,1,0.3,1.2-0.4c0.2-0.6,0.4-1.1,0.6-1.7
		c0.1-0.3,0.1-0.8,0.6-0.8c1.4,0,2.9-0.2,4.3,0.1c0.8,0.2,0.7,1.4,1,2.2c0.2,0.5,0.5,0.8,1.1,0.8C216.4,279,216.6,278.9,216.5,278.5
		z"/>
	<path class="st8" d="M212.5,285.4c13.7-0.1,25.1,11.1,25.3,24.7c0.2,13.9-11,25.2-25,25.4c-13.6,0.2-25.1-11.1-25.3-24.9
		C187.3,297,198.6,285.6,212.5,285.4z M195.9,306.6c0.1,0,0.2-0.1,0.3-0.1c0.2,0.4,0.5,0.8,0.7,1.2c1.3,2.3,2.6,4.7,3.9,7
		c0.4,0.7,0.9,1.2,1.8,1c0.8-0.2,0.5-1,0.5-1.5c0-2.2,0-4.4,0-6.6c0-0.7,0-1.5,0-2.2c0-0.5,0-1-0.6-1c-0.8,0-0.7,0.5-0.7,1
		c0,0.4,0,0.8,0,1.2c0,2.2,0,4.5,0,7.1c-1.7-3-3.2-5.7-4.6-8.3c-0.4-0.8-1-1.1-1.8-1c-0.9,0.1-0.8,0.9-0.8,1.5c0,2.8,0,5.6,0,8.4
		c0,0.6-0.4,1.5,0.7,1.4c1,0,0.6-0.9,0.6-1.4C196,311.9,195.9,309.3,195.9,306.6z M223.7,311.8c0,2.8,1.2,4.1,3.7,4.2
		c2.6,0,4.1-1.5,4.1-4.2c0.1-2.6-1.4-4.3-3.9-4.3C225.1,307.4,223.7,309,223.7,311.8z M212,312.5c0-0.7,0-1.5,0-2.2
		c0-1.3-0.3-2.3-1.6-2.7c-1.5-0.4-2.9-0.2-4.1,0.6c-0.3,0.2-0.3,0.5-0.2,0.8c0.2,0.4,0.5,0.1,0.7,0c0.5-0.2,1-0.4,1.5-0.6
		c1.3-0.3,2.3,0.4,2.4,1.6c0.1,1.6-1.1,0.8-1.8,0.9c-1.3,0.3-2.7,0.4-3.2,2c-0.3,0.9-0.1,1.8,0.7,2.4c1.1,0.8,2.2,0.7,3.4,0.2
		c0.4-0.2,0.9-1.1,1.2,0.1c0.1,0.3,0.4,0.2,0.7,0.1c0.3-0.1,0.3-0.4,0.3-0.6C212,314.3,212,313.4,212,312.5z M215.9,308.6
		c-0.4-0.3,0.1-1.3-0.8-1.1c-0.7,0.2-0.4,0.8-0.4,1.2c0,2,0,4,0,6c0,0.5-0.3,1.2,0.7,1.1c1,0,0.6-0.8,0.6-1.2c0.1-1.1,0-2.3,0-3.4
		c0-1.4,1.2-2.8,2.4-2.7c1.5,0.2,1.7,1.3,1.7,2.6c0,1.3,0,2.7,0,4c0,0.5,0.1,0.8,0.7,0.7c0.4,0,0.7-0.2,0.7-0.6
		c-0.1-1.9,0.3-3.9-0.2-5.8c-0.4-1.9-2.3-2.6-4-1.7C216.8,308,216.4,308.3,215.9,308.6z"/>
	<path class="st9" d="M265.7,322.2c0.4-0.6,1.1-0.8,1.7-1c0.1,0.1,0.1,0.1,0.2,0.2C267,321.7,266.4,322.2,265.7,322.2L265.7,322.2z"
		/>
	<path class="st9" d="M241,331.1c0.5-0.4,0.9-0.6,1.7-0.6C242.1,331,241.7,331.2,241,331.1z"/>
	<path class="st10" d="M160.9,321.8c-0.4-0.2-0.8-0.3-0.9-0.8c0.6-0.1,0.9,0.2,1.2,0.5C161,321.6,160.9,321.7,160.9,321.8z"/>
	<path class="st9" d="M267.9,320.8c0.3-0.2,0.6-0.3,1-0.5c0.1,0.1,0.2,0.2,0.3,0.2c-0.3,0.2-0.7,0.3-1,0.5
		C268.1,321,268,320.9,267.9,320.8z"/>
	<path class="st10" d="M265.8,320.9c-0.1,0.3-0.3,0.4-0.5,0.4c-0.1,0-0.3-0.1-0.2-0.3c0.1-0.2,0.4-0.3,0.5-0.4
		C265.7,320.7,265.9,320.7,265.8,320.9z"/>
	<path class="st3" d="M179.5,329.6c-0.3-0.1-1-0.1-0.7-0.6c0.2-0.4,0.6,0.1,1,0.2C179.7,329.3,179.6,329.5,179.5,329.6z"/>
	<path class="st4" d="M246.7,327.8c-0.3,0.2-0.6,0.1-0.9,0c0.1-0.3,0.5-0.2,0.7-0.3C246.5,327.6,246.6,327.7,246.7,327.8z"/>
	<path class="st10" d="M264,322c-0.3,0.2-0.6,0.3-0.9,0c0.2-0.1,0.4-0.2,0.6-0.3C263.8,321.8,263.9,321.9,264,322z"/>
	<path class="st7" d="M227.7,332.2c-0.3,0.1-0.7,0.6-1,0.2c-0.1-0.2,0.4-0.4,0.6-0.5C227.5,332,227.6,332.1,227.7,332.2z"/>
	<path class="st5" d="M234,331.9c0.4-0.5,0.8-0.8,1-0.6c0.4,0.4-0.1,0.4-0.4,0.5C234.5,331.9,234.4,331.9,234,331.9z"/>
	<path class="st9" d="M239.8,331.6c-0.1,0.1-0.2,0.1-0.2,0.1c-0.1,0-0.2,0-0.3,0c0,0,0-0.1,0.1-0.1
		C239.5,331.5,239.6,331.5,239.8,331.6z"/>
	<path class="st6" d="M230.4,331.8c0.3-0.1,0.4,0,0.4,0.1c0,0.1-0.2,0.1-0.4,0.1c-0.1,0-0.2-0.1-0.3-0.2
		C230.3,331.8,230.5,331.8,230.4,331.8z"/>
	<path class="st9" d="M158.9,321.8c0.1,0,0.3,0.1,0.4,0.1c0,0.1-0.1,0.2-0.1,0.2C159.1,322,159,322,158.9,321.8
		C158.9,321.9,158.9,321.8,158.9,321.8z"/>
	<path class="st10" d="M161.5,321.6c0.1,0.2,0.6,0.2,0.4,0.5c-0.2,0.2-0.4,0-0.6-0.2C161.3,321.8,161.4,321.7,161.5,321.6z"/>
	<path class="st6" d="M231.9,331.6c-0.2,0.2-0.5,0.4-0.7,0.1c-0.2-0.2,0.2-0.3,0.4-0.4C231.7,331.4,231.8,331.5,231.9,331.6z"/>
	<path class="st9" d="M163,322.9c-0.2-0.1-0.3-0.2-0.5-0.2c0.1-0.1,0.1-0.2,0.2-0.2c0.2,0.1,0.3,0.2,0.5,0.3
		C163.1,322.8,163.1,322.8,163,322.9z"/>
	<path class="st9" d="M264.4,322.9C264.3,322.9,264.4,323,264.4,322.9c-0.1,0.1-0.1,0.1-0.1,0.1c-0.1-0.1-0.1-0.1,0-0.1
		C264.3,322.8,264.3,322.9,264.4,322.9z"/>
	<path class="st4" d="M246.4,327.5c0.2-0.2,0.5-0.5,0.7-0.2c0.3,0.4-0.2,0.4-0.4,0.5C246.6,327.7,246.5,327.6,246.4,327.5z"/>
	<path class="st3" d="M179.7,329.2c0.2,0.1,0.4,0.2,0.6,0.3c-0.1,0.1-0.2,0.2-0.3,0.3c-0.2-0.1-0.4-0.1-0.6-0.2
		C179.6,329.5,179.7,329.3,179.7,329.2z"/>
	<path class="st3" d="M180.4,329.5c0.2,0.1,0.4,0.2,0.3,0.4c-0.2,0.3-0.4,0.1-0.6-0.1C180.2,329.7,180.3,329.6,180.4,329.5z"/>
	<path class="st9" d="M267.4,321.1c0.2-0.1,0.4-0.2,0.6-0.4c0.1,0.1,0.1,0.2,0.2,0.3c-0.2,0.1-0.4,0.2-0.6,0.3
		C267.5,321.3,267.4,321.2,267.4,321.1z"/>
	<path class="st6" d="M193.1,331c0.2,0.1,0.6,0.2,0.3,0.5c-0.2,0.2-0.5,0-0.8-0.1C192.8,331.2,193,331.1,193.1,331z"/>
	<path class="st9" d="M240.7,331.3c-0.1,0-0.2,0.1-0.3,0.1c-0.1,0-0.1-0.1-0.1-0.1c0.1,0,0.2-0.1,0.2-0.1
		C240.6,331.2,240.6,331.3,240.7,331.3z"/>
	<path class="st5" d="M190.9,331.9c-0.2-0.1-0.6-0.1-0.5-0.4c0.2-0.5,0.5,0,0.8,0.1C191.1,331.7,191,331.8,190.9,331.9z"/>
	<path class="st6" d="M193.6,331.6c0.2,0,0.4-0.1,0.5-0.1c0.1,0,0.2,0.1,0.2,0.2c-0.1,0.1-0.1,0.3-0.3,0.2
		C193.9,331.8,193.8,331.7,193.6,331.6z"/>
	<path class="st9" d="M158.3,321.6c-0.2-0.1-0.4-0.2-0.6-0.3c0.1-0.1,0.1-0.1,0.2-0.2c0.2,0.1,0.4,0.2,0.6,0.3
		C158.4,321.5,158.3,321.6,158.3,321.6z"/>
	<path class="st9" d="M158.4,321.4c0.2,0.1,0.5,0.1,0.5,0.4c0,0,0,0,0,0c-0.3,0-0.5,0-0.6-0.3C158.3,321.6,158.4,321.5,158.4,321.4z
		"/>
	<path class="st5" d="M191.2,331.6c0.2,0.1,0.4,0.2,0.3,0.4c-0.2,0.3-0.4,0.1-0.6-0.1C191,331.8,191.1,331.7,191.2,331.6z"/>
	<path class="st10" d="M263.8,321.7c0.2-0.1,0.5-0.5,0.7-0.2c0.2,0.4-0.3,0.3-0.5,0.5C263.9,321.9,263.8,321.8,263.8,321.7z"/>
	<path class="st9" d="M268.9,320.3c0.1-0.1,0.3-0.3,0.4-0.1c0,0-0.1,0.2-0.1,0.3C269.1,320.4,269,320.4,268.9,320.3z"/>
	<path class="st10" d="M161.2,321.9c-0.1,0-0.3-0.1-0.4-0.1c0.1-0.1,0.2-0.2,0.2-0.3c0.1,0.1,0.2,0.1,0.4,0.2
		C161.4,321.7,161.3,321.8,161.2,321.9z"/>
	<path class="st9" d="M265.7,322.2c0,0.1,0,0.1-0.1,0.2c0,0-0.1-0.1-0.1-0.1C265.5,322.2,265.6,322.2,265.7,322.2
		C265.7,322.2,265.7,322.2,265.7,322.2z"/>
	<path class="st9" d="M163.9,323.3C163.9,323.3,163.8,323.3,163.9,323.3c-0.1-0.1,0-0.1,0-0.2C163.9,323.2,164,323.2,163.9,323.3
		C164,323.3,163.9,323.3,163.9,323.3z"/>
	<path class="st9" d="M164.5,323.4c0,0,0.1,0.1,0.1,0.1c0,0-0.1,0.1-0.1,0.1c0,0-0.1-0.1-0.1-0.1
		C164.4,323.5,164.4,323.5,164.5,323.4z"/>
	<path class="st9" d="M163.1,322.7c0.1,0,0.3,0,0.2,0.2c-0.1,0.1-0.2,0-0.3-0.1C163.1,322.8,163.1,322.8,163.1,322.7z"/>
	<path class="st9" d="M157.5,320.9c0.1,0.1,0.3,0.1,0.4,0.2c-0.1,0.1-0.1,0.1-0.2,0.2c-0.1-0.1-0.3-0.1-0.4-0.2
		C157.3,321.1,157.4,321,157.5,320.9z"/>
	<path class="st9" d="M265,322.6C265,322.6,265,322.7,265,322.6c-0.1,0.1-0.2,0-0.2,0C264.9,322.6,264.9,322.5,265,322.6
		C265,322.5,265,322.6,265,322.6z"/>
	<path class="st11" d="M201.5,100.9c-0.6,2.4-1.2,4.8-1.9,7.2c-0.2,0.7-0.1,1.5-1.3,1.5c-1.1,0-1.1-0.8-1.3-1.5
		c-0.9-2.9-1.7-5.8-2.5-8.8c-0.1-0.4-0.7-1,0.2-1.2c0.7-0.1,1,0.2,1.1,0.8c0.8,2.9,1.6,5.8,2.5,9.1c0.8-3,1.5-5.6,2.1-8.2
		c0.1-0.3,0.1-0.6,0.2-0.9c0.1-0.5,0.3-0.9,1-0.9c0.7,0,0.8,0.5,1,1c0.7,2.6,1.4,5.2,2.1,7.8c0.1,0.3,0.2,0.5,0.4,1.1
		c0.8-3.1,1.5-5.8,2.3-8.5c0.1-0.3,0.2-0.6,0.2-0.9c0.1-0.5,0.6-0.5,0.9-0.4c0.5,0.1,0.4,0.5,0.3,0.8c-0.9,3.3-1.9,6.6-2.8,9.9
		c-0.2,0.7-0.7,0.7-1.3,0.7c-0.7,0-0.8-0.4-1-0.9c-0.7-2.6-1.4-5.1-2.1-7.7C201.7,100.9,201.6,100.9,201.5,100.9z"/>
	<path class="st12" d="M228.8,107.5c0-3,0-5.6,0-8.1c0-0.5-0.2-1.2,0.6-1.2c0.8,0,0.7,0.7,0.7,1.2c0,2.9,0,5.8,0,8.7
		c0,0.6,0.2,1.3-0.7,1.4c-0.7,0.1-1.2-0.2-1.6-0.9c-1.3-2.4-2.6-4.7-3.9-7.1c-0.2-0.4-0.5-0.8-1-1.2c0,2.4,0,4.8,0,7.2
		c0,0.4,0,0.8,0,1.2c0,0.4-0.1,0.7-0.6,0.7c-0.5,0-0.8-0.2-0.8-0.7c0-3.3,0-6.6,0-9.9c0-0.5,0.4-0.8,0.9-0.8c0.7,0,1.2,0.2,1.6,0.9
		c0.9,1.6,1.8,3.2,2.7,4.8C227.4,104.9,228,106,228.8,107.5z"/>
	<path class="st11" d="M210.4,109.6c-0.4,0-0.4-0.3-0.2-0.8c1.2-3.3,2.4-6.6,3.6-10c0.2-0.5,0.5-0.6,1-0.6c0.5,0,0.9,0.1,1.1,0.6
		c1.2,3.3,2.4,6.6,3.6,10c0.1,0.3,0.2,0.6-0.2,0.8c-0.3,0.1-0.6,0.1-0.9,0c-0.2-0.1-0.3-0.4-0.4-0.6c-0.4-0.7-0.3-2-1-2.2
		c-1.3-0.3-2.8-0.2-4.2-0.1c-1,0-0.7,1.1-1,1.6C211.5,108.7,211.6,109.5,210.4,109.6z M214.7,99.5c-0.4,1.1-0.6,1.7-0.9,2.4
		c-1.2,3.7-1.2,3.7,2.9,3.3C216.1,103.4,215.5,101.7,214.7,99.5z"/>
	<path class="st12" d="M219.6,128.6c0,2.6,0,5.2,0,7.8c0,0.5,0.4,1.3-0.6,1.4c-1,0-0.7-0.8-0.7-1.3c0-2.8,0-5.7,0-8.5
		c0-0.6-0.1-1.3,0.7-1.5c0.8-0.2,1.4,0.1,1.9,0.9c1.5,2.7,3,5.4,4.7,8.4c0-3,0-5.5,0-8.1c0-0.5-0.2-1.2,0.7-1.2
		c0.9,0,0.7,0.7,0.7,1.2c0,2.9,0,5.8,0,8.7c0,0.6,0.2,1.3-0.7,1.4c-0.7,0.1-1.2-0.2-1.6-0.9c-1.4-2.6-2.9-5.2-4.3-7.8
		c-0.1-0.2-0.2-0.3-0.3-0.5C219.9,128.5,219.8,128.5,219.6,128.6z"/>
	<path class="st12" d="M203,132.2c1.5,1.3,1.8,3.2,2.6,4.9c0.1,0.3,0.2,0.6-0.3,0.7c-0.5,0.1-1,0.1-1.2-0.5
		c-0.3-0.9-0.7-1.8-1.1-2.8c-0.3-0.7-0.6-1.3-1.3-1.6c-1.3-0.6-2-0.2-2,1.2c0,1,0,2,0,3c0,0.5-0.2,0.7-0.7,0.7
		c-0.5,0-0.8-0.2-0.8-0.7c0-3.3,0-6.6,0-9.9c0-0.6,0.4-0.8,1-0.9c1.3-0.1,2.6,0,3.9,0.3c1.1,0.3,1.8,1.1,1.9,2.2c0.2,1-0.2,2-1,2.6
		C203.7,131.8,203.4,131.9,203,132.2z M199.7,129.4c0,2,0,2,1.3,2c1.8,0,2.6-0.6,2.5-2c0-1.3-0.8-1.8-2.6-1.9
		C199.1,127.4,199.9,128.6,199.7,129.4z"/>
	<path class="st11" d="M207.4,137.7c-0.6,0-0.7-0.1-0.5-0.7c1.2-3.4,2.4-6.7,3.6-10.1c0.2-0.5,0.6-0.6,1-0.6c0.5,0,0.9,0.1,1.1,0.6
		c1.2,3.3,2.4,6.6,3.6,10c0.1,0.3,0.2,0.6-0.1,0.8c-0.3,0.1-0.6,0.1-0.9,0c-0.2-0.1-0.3-0.3-0.4-0.5c-0.4-0.7-0.2-2.1-1.1-2.3
		c-1.3-0.3-2.8-0.2-4.2-0.1c-0.9,0.1-0.7,1.2-1,1.8C208.2,137,208.2,137.8,207.4,137.7z M211.6,128.1c-0.1,0-0.2,0-0.3,0
		c-0.6,1.8-1.2,3.5-1.8,5.3c1.4,0,2.6,0,4,0C212.8,131.6,212.2,129.9,211.6,128.1z"/>
	<path class="st13" d="M206.1,156.4c-1.2,2.8-2.3,5.7-3.5,8.5c-0.2,0.5-0.3,1.1-1.1,1c-0.7,0-0.7-0.6-0.9-1
		c-1.1-2.9-2.2-5.7-3.6-8.6c0,2.5,0.1,5.1,0,7.6c0,0.7,0.7,2-0.8,1.9c-1.3,0-0.6-1.3-0.7-1.9c-0.1-2.6,0-5.2,0-7.8
		c0-0.7-0.1-1.5,0.9-1.6c0.9-0.1,1.7,0.1,2,1.1c0.9,2.5,1.9,4.9,2.9,7.3c0.1,0.2,0.2,0.3,0.4,0.8c0.7-1.6,1.3-3,1.9-4.4
		c0.5-1.3,1.1-2.6,1.6-3.9c0.3-0.9,1-1,1.8-0.9c0.9,0.1,0.8,0.9,0.8,1.5c0,2.9,0,5.8,0,8.7c0,0.5,0.2,1.2-0.7,1.2
		c-0.9,0-0.7-0.7-0.7-1.2c0-2.8,0-5.5,0-8.3C206.3,156.4,206.2,156.4,206.1,156.4z"/>
	<path class="st12" d="M228.5,163.9c0-3,0-5.5,0-8.1c0-0.5-0.3-1.2,0.6-1.3c1,0,0.7,0.8,0.7,1.3c0,2.8,0,5.7,0,8.5
		c0,0.6,0.3,1.3-0.6,1.5c-0.8,0.2-1.3-0.3-1.7-1c-1.4-2.5-2.7-5-4.1-7.4c-0.2-0.3-0.3-0.6-0.8-0.8c0,2.5,0.1,4.9,0,7.4
		c0,0.6,0.6,1.8-0.6,1.8c-1.3,0-0.7-1.2-0.7-1.9c-0.1-2.6,0-5.3,0-7.9c0-0.7-0.1-1.4,0.8-1.5c0.7-0.1,1.3,0.2,1.7,0.9
		C225.3,158.1,226.8,160.8,228.5,163.9z"/>
	<path class="st14" d="M214.1,162.9c-1.6-0.4-2.5,0.3-2.8,2.1c-0.1,0.7-0.6,1.1-1.3,0.8c-0.7-0.3-0.2-0.8,0-1.2
		c1.1-3,2.2-6.1,3.3-9.1c0.2-0.6,0.3-1.1,1.2-1.1c0.7,0,1,0.4,1.3,1c1.1,3.1,2.3,6.3,3.4,9.4c0.1,0.3,0.5,0.8-0.1,1
		c-0.4,0.2-1,0.2-1.2-0.5c-0.1-0.1-0.1-0.3-0.1-0.4C216.8,162.9,216.8,162.9,214.1,162.9z M216.5,161.7c-0.7-1.9-1.3-3.6-2-5.7
		c-0.8,2.1-1.5,3.8-1.9,5.7C213.9,161.7,215.1,161.7,216.5,161.7z"/>
	<path class="st13" d="M219.6,185.2c0,2.7,0,5.4,0,8.1c0,0.4,0.3,1.1-0.6,1.1c-0.9,0-0.8-0.6-0.8-1.2c0-2.9,0-5.8,0-8.7
		c0-0.7-0.1-1.4,0.8-1.5c0.7-0.1,1.3,0.2,1.7,0.9c1.4,2.5,2.8,5.1,4.2,7.6c0.1,0.2,0.2,0.3,0.5,0.8c0-2.9,0-5.4,0-8
		c0-0.5-0.3-1.2,0.6-1.3c1,0,0.7,0.8,0.7,1.3c0,2.9,0,5.8,0,8.7c0,0.5,0.2,1.2-0.6,1.3c-0.7,0.1-1.2-0.2-1.6-0.8
		c-1.6-2.8-3.1-5.6-4.7-8.4C219.8,185.2,219.7,185.2,219.6,185.2z"/>
	<path class="st14" d="M216.2,193.9c0.1,0.4-0.1,0.5-0.5,0.6c-0.6,0-0.9-0.2-1.1-0.7c-0.3-0.8-0.2-2-1-2.2c-1.4-0.3-2.9-0.1-4.3-0.1
		c-0.4,0-0.5,0.5-0.6,0.8c-0.2,0.6-0.4,1.2-0.6,1.8c-0.2,0.6-0.8,0.4-1.2,0.3c-0.6-0.2-0.1-0.6-0.1-0.8c1.2-3.3,2.4-6.5,3.5-9.8
		c0.2-0.5,0.4-0.7,1-0.7c0.5,0,0.9,0,1.1,0.5c1.2,3.4,2.5,6.8,3.7,10.2C216.2,193.8,216.2,193.8,216.2,193.9z M213.5,190.2
		c-0.7-1.9-1.3-3.7-2-5.8c-0.7,2-1.2,3.6-1.8,5.2c-0.2,0.7,0.2,0.6,0.6,0.6C211.3,190.2,212.3,190.2,213.5,190.2z"/>
	<path class="st14" d="M205.6,185.2c-1.9-1-3.9-1.9-5.6,0.3c-1.3,1.7-1.2,5.1,0.1,6.6c1.1,1.4,2.8,1.4,5.5,0.2
		c0.4,0.9-0.1,1.4-0.8,1.7c-1.8,0.8-3.5,0.8-5.1-0.3c-2-1.4-2.2-3.6-2-5.8c0.5-3.9,3.6-5.9,6.9-4.5
		C205.5,183.7,205.7,184,205.6,185.2z"/>
	<path class="st13" d="M224.6,220.5c0-3,0-5.5,0-8.1c0-0.5-0.2-1.2,0.7-1.2c0.9,0,0.7,0.7,0.7,1.2c0,2.9,0,5.8,0,8.7
		c0,0.5,0.2,1.3-0.6,1.4c-0.7,0.1-1.2-0.2-1.6-0.9c-1.5-2.8-3.1-5.6-4.7-8.4c-0.6,0.2-0.3,0.7-0.3,1c0,2.4,0,4.9,0,7.3
		c0,0.4,0.1,0.9-0.6,0.9c-0.6,0-0.7-0.4-0.7-0.9c0-3.1,0-6.2,0-9.3c0-0.6,0.2-1.1,0.8-1.2c0.8-0.1,1.3,0.2,1.7,0.9
		c1.1,2.1,2.3,4.2,3.5,6.3C223.7,219,224.1,219.6,224.6,220.5z"/>
	<path class="st14" d="M215.4,222.2c0.1,0.3-0.1,0.4-0.4,0.4c-0.5,0.1-0.9-0.1-1.2-0.6c-0.3-0.8-0.2-2.1-1.1-2.3
		c-1.3-0.3-2.8-0.1-4.2-0.1c-0.5,0-0.5,0.4-0.6,0.7c-0.2,0.6-0.4,1.2-0.6,1.8c-0.2,0.6-0.7,0.5-1.1,0.4c-0.7-0.1-0.2-0.6-0.2-0.8
		c1.2-3.3,2.4-6.6,3.6-9.9c0.3-0.8,1.7-1,2-0.2c1.3,3.4,2.5,6.9,3.8,10.4C215.4,222,215.3,222.1,215.4,222.2z M212.6,218.3
		c-0.7-1.9-1.3-3.6-2.1-5.8c-0.7,2.2-1.3,3.9-2,5.8C209.9,218.3,211.2,218.3,212.6,218.3z"/>
	<path class="st12" d="M199.4,216.8c0-1.4,0-2.8,0-4.2c0-0.6-0.3-1.4,0.8-1.4c1,0,0.7,0.8,0.7,1.3c0,2.6,0,5.2,0,7.8
		c0,0.9,0.3,1.1,1.1,1.1c0.8-0.1,1.6,0,2.4,0c0.4,0,0.8-0.1,0.8,0.6c0,0.5-0.2,0.7-0.7,0.7c-1.3,0-2.7,0-4,0c-0.8,0-1-0.4-1-1.2
		C199.4,219.9,199.4,218.3,199.4,216.8z"/>
	<path class="st13" d="M225.5,248.7c0-3,0-5.6,0-8.1c0-0.5-0.2-1.2,0.6-1.2c0.9,0,0.7,0.7,0.7,1.2c0,2.9,0,5.8,0,8.7
		c0,0.5,0.2,1.3-0.6,1.5c-0.7,0.1-1.2-0.2-1.6-0.9c-1.3-2.4-2.7-4.8-4-7.2c-0.2-0.4-0.5-0.8-1-1.1c0,2.6,0,5.2,0,7.9
		c0,0.5,0.5,1.4-0.6,1.4c-1.1,0-0.7-0.9-0.7-1.5c0-2.7,0-5.5,0-8.2c0-0.7-0.1-1.5,0.8-1.7c0.8-0.1,1.4,0.3,1.8,1
		C222.4,243.1,223.8,245.7,225.5,248.7z"/>
	<path class="st14" d="M216.2,250.3c0.1,0.4-0.1,0.5-0.5,0.5c-0.6,0-0.9-0.2-1.1-0.8c-0.3-0.7-0.2-2-1-2.2c-1.4-0.3-2.9-0.1-4.3-0.1
		c-0.4,0-0.4,0.5-0.6,0.8c-0.2,0.6-0.4,1.1-0.6,1.7c-0.2,0.7-0.8,0.6-1.2,0.4c-0.6-0.2-0.1-0.6,0-0.9c1.2-3.3,2.4-6.5,3.5-9.8
		c0.2-0.5,0.5-0.7,1-0.7c0.5,0,0.9,0,1.1,0.5c1.2,3.4,2.5,6.8,3.7,10.2C216.2,250.2,216.2,250.2,216.2,250.3z M213.5,246.5
		c-0.7-1.9-1.3-3.7-2.1-5.8c-0.7,2.2-1.3,4-2,5.8C210.8,246.5,212.1,246.5,213.5,246.5z"/>
	<path class="st12" d="M198.5,245.2c0-1.5,0-3,0-4.5c0-1,0.4-1.4,1.3-1.3c0.9,0,1.9,0,2.8,0.2c2,0.4,2.9,1.5,2.8,3.4
		c-0.1,1.8-1.3,3.2-3.2,3.3c-2.3,0.2-2.2,0.2-2.3,2.4c0,0.7,0.7,2-0.7,2c-1.4,0-0.7-1.3-0.8-2C198.4,247.6,198.5,246.4,198.5,245.2z
		 M200,242.9c0,0.6,0,1.2,0,1.8c0,0.3,0,0.6,0.4,0.6c1,0,2,0.1,2.8-0.7c0.9-0.9,0.9-2,0.4-3c-0.7-1.2-2-1.1-3.1-0.9
		c-1.2,0.2-0.3,1.3-0.5,2C200,242.7,200,242.8,200,242.9z"/>
	<path class="st13" d="M219.6,269.8c0,2.7,0,5.4,0,8.1c0,0.4,0.3,1.1-0.6,1.1c-0.9,0-0.8-0.6-0.8-1.1c0-2.9,0-5.8,0-8.7
		c0-0.7-0.1-1.4,0.8-1.5c0.7-0.1,1.3,0.2,1.7,0.9c1.4,2.5,2.8,5.1,4.2,7.6c0.1,0.2,0.2,0.3,0.5,0.8c0-2.9,0-5.4,0-8
		c0-0.5-0.3-1.2,0.6-1.3c1,0,0.7,0.8,0.7,1.3c0,2.8,0,5.7,0,8.5c0,0.6,0.3,1.3-0.6,1.5c-0.8,0.2-1.3-0.3-1.7-1
		c-1.4-2.6-2.9-5.2-4.4-7.8C220.1,270,220.1,269.7,219.6,269.8z"/>
	<path class="st13" d="M203.6,272.8c1.6,0.7,2.4,1.8,2.1,3.4c-0.3,1.6-1.5,2.4-3.1,2.6c-1.1,0.1-2.3,0.1-3.4,0.1
		c-0.7,0-0.9-0.4-0.9-1.1c0-3,0-6.1,0-9.1c0-0.8,0.4-1.2,1.2-1.2c0.9,0,1.9,0,2.8,0.1c1.2,0.2,2.2,0.5,2.5,1.7
		C205.1,270.7,205,272,203.6,272.8z M199.7,275.6c0,1.1-0.5,2.4,1.5,2.2c2.1-0.2,3-0.6,3-2c0-1.5-1-2-3.1-2.2
		C199.1,273.4,199.8,274.8,199.7,275.6z M199.7,270.8c0.1,0.8-0.5,2.1,1.3,1.9c1.6-0.2,2.6-0.8,2.6-2c0-1.2-0.8-1.7-2.5-1.8
		C199.2,268.6,199.8,269.9,199.7,270.8z"/>
	<path class="st14" d="M216.5,278.5c0.1,0.4-0.1,0.5-0.5,0.5c-0.6,0-0.9-0.2-1.1-0.8c-0.3-0.7-0.2-2-1-2.2c-1.4-0.3-2.9-0.1-4.3-0.1
		c-0.4,0-0.4,0.5-0.6,0.8c-0.2,0.6-0.4,1.1-0.6,1.7c-0.2,0.7-0.8,0.6-1.2,0.4c-0.6-0.2-0.1-0.6,0-0.9c1.2-3.3,2.4-6.5,3.5-9.8
		c0.2-0.5,0.5-0.7,1-0.7c0.5,0,0.9,0,1.1,0.5c1.2,3.4,2.5,6.8,3.7,10.2C216.5,278.4,216.5,278.4,216.5,278.5z M213.8,274.7
		c-0.7-1.9-1.3-3.6-2.1-5.8c-0.7,2.2-1.3,3.9-2,5.8C211.1,274.7,212.4,274.7,213.8,274.7z"/>
	<path class="st13" d="M195.9,306.6c0,2.6,0,5.2,0,7.9c0,0.5,0.5,1.4-0.6,1.4c-1.1,0-0.7-0.9-0.7-1.4c0-2.8,0-5.6,0-8.4
		c0-0.7-0.1-1.4,0.8-1.5c0.8-0.1,1.4,0.3,1.8,1c1.4,2.7,2.9,5.3,4.6,8.3c0-2.6,0-4.9,0-7.1c0-0.4,0-0.8,0-1.2c0-0.5-0.1-1.1,0.7-1
		c0.6,0,0.6,0.5,0.6,1c0,0.7,0,1.5,0,2.2c0,2.2,0,4.4,0,6.6c0,0.5,0.3,1.3-0.5,1.5c-0.9,0.2-1.4-0.3-1.8-1c-1.3-2.4-2.6-4.7-3.9-7
		c-0.2-0.4-0.5-0.8-0.7-1.2C196.1,306.6,196,306.6,195.9,306.6z"/>
	<path class="st14" d="M223.7,311.8c0-2.8,1.4-4.4,4-4.4c2.4,0,3.9,1.6,3.9,4.3c-0.1,2.7-1.6,4.3-4.1,4.2
		C224.9,315.9,223.7,314.5,223.7,311.8z M230,311.5c0-0.1,0-0.3,0-0.6c-0.1-1.3-0.7-2.3-2.1-2.4c-1.4-0.2-2.2,0.6-2.6,2
		c-0.3,1-0.2,1.9,0.1,2.8c0.5,1.7,2.8,2.2,4,0.9C229.9,313.5,230.1,312.6,230,311.5z"/>
	<path class="st14" d="M212,312.5c0,0.9,0,1.8,0,2.7c0,0.2,0.1,0.5-0.3,0.6c-0.2,0.1-0.6,0.1-0.7-0.1c-0.3-1.3-0.8-0.3-1.2-0.1
		c-1.2,0.5-2.3,0.6-3.4-0.2c-0.8-0.6-1-1.5-0.7-2.4c0.5-1.6,1.9-1.7,3.2-2c0.6-0.1,1.9,0.7,1.8-0.9c-0.1-1.2-1.1-1.9-2.4-1.6
		c-0.5,0.1-1,0.3-1.5,0.6c-0.3,0.1-0.5,0.4-0.7,0c-0.2-0.3-0.1-0.6,0.2-0.8c1.3-0.9,2.7-1,4.1-0.6c1.3,0.4,1.7,1.4,1.6,2.7
		C212,311,212,311.8,212,312.5z M209.4,312c-1.6,0-2.5,0.6-2.4,1.6c0.1,1,0.7,1.4,1.6,1.3c1.2-0.1,2-0.9,2.1-2
		C210.9,311.7,210,312,209.4,312z"/>
	<path class="st13" d="M215.9,308.6c0.4-0.3,0.8-0.6,1.2-0.8c1.7-0.9,3.5-0.2,4,1.7c0.4,1.9,0.1,3.9,0.2,5.8c0,0.4-0.3,0.6-0.7,0.6
		c-0.6,0-0.7-0.3-0.7-0.7c0-1.3,0-2.7,0-4c0-1.2-0.2-2.4-1.7-2.6c-1.2-0.2-2.4,1.3-2.4,2.7c0,1.1,0,2.3,0,3.4c0,0.4,0.4,1.2-0.6,1.2
		c-1,0-0.7-0.7-0.7-1.1c0-2,0-4,0-6c0-0.4-0.3-1.1,0.4-1.2C216.1,307.3,215.5,308.3,215.9,308.6z"/>
	<path class="st1" d="M214.7,99.5c0.8,2.2,1.4,3.9,2,5.7c-4.1,0.4-4.1,0.4-2.9-3.3C214.1,101.3,214.3,100.6,214.7,99.5z"/>
	<path class="st2" d="M199.7,129.4c0.2-0.7-0.6-2,1.2-1.9c1.8,0.1,2.6,0.6,2.6,1.9c0,1.4-0.8,2-2.5,2
		C199.7,131.4,199.7,131.4,199.7,129.4z"/>
	<path class="st2" d="M211.6,128.1c0.6,1.8,1.2,3.5,1.9,5.3c-1.4,0-2.6,0-4,0c0.6-1.8,1.2-3.6,1.8-5.3
		C211.4,128.1,211.5,128.1,211.6,128.1z"/>
	<path class="st3" d="M216.5,161.7c-1.4,0-2.6,0-3.9,0c0.5-1.9,1.1-3.6,1.9-5.7C215.2,158,215.8,159.8,216.5,161.7z"/>
	<path class="st4" d="M213.5,190.2c-1.2,0-2.2,0-3.2,0c-0.4,0-0.9,0.1-0.6-0.6c0.6-1.6,1.1-3.2,1.8-5.2
		C212.2,186.5,212.8,188.3,213.5,190.2z"/>
	<path class="st15" d="M212.6,218.3c-1.4,0-2.6,0-4,0c0.6-1.8,1.2-3.6,2-5.8C211.3,214.7,211.9,216.4,212.6,218.3z"/>
	<path class="st15" d="M213.5,246.5c-1.4,0-2.6,0-4,0c0.6-1.8,1.2-3.6,2-5.8C212.2,242.9,212.8,244.6,213.5,246.5z"/>
	<path class="st15" d="M200,242.9c0-0.1,0-0.2,0-0.3c0.3-0.6-0.7-1.8,0.5-2c1.1-0.2,2.4-0.3,3.1,0.9c0.5,1,0.6,2.1-0.4,3
		c-0.8,0.8-1.8,0.7-2.8,0.7c-0.4,0-0.4-0.3-0.4-0.6C200,244.1,200,243.5,200,242.9z"/>
	<path class="st15" d="M199.7,275.6c0.1-0.8-0.6-2.2,1.4-2c2.1,0.2,3.1,0.7,3.1,2.2c0,1.5-0.8,1.9-3,2
		C199.2,278,199.7,276.7,199.7,275.6z"/>
	<path class="st15" d="M199.7,270.7c0.1-0.9-0.5-2.2,1.3-2c1.7,0.2,2.5,0.6,2.5,1.8c0,1.3-0.9,1.9-2.6,2
		C199.2,272.8,199.8,271.6,199.7,270.7z"/>
	<path class="st15" d="M213.8,274.7c-1.4,0-2.6,0-4,0c0.6-1.8,1.2-3.6,2-5.8C212.5,271.1,213.1,272.8,213.8,274.7z"/>
	<path class="st16" d="M230,311.5c0.1,1.1-0.1,2-0.7,2.7c-1.2,1.3-3.5,0.8-4-0.9c-0.3-0.9-0.4-1.8-0.1-2.8c0.4-1.5,1.3-2.2,2.6-2
		c1.4,0.2,2,1.1,2.1,2.4C230,311.2,230,311.4,230,311.5z"/>
	<path class="st7" d="M209.4,312c0.6,0,1.5-0.3,1.4,0.9c-0.1,1.1-0.9,2-2.1,2c-1,0-1.5-0.4-1.6-1.3C206.9,312.6,207.8,312,209.4,312
		z"/>
</g>
</svg>
